# xmcd
#
# Track frame offsets:
#	150
#	6387
#	25401
#	43791
#	61980
#	81195
#	103282
#	124231
#	145043
#	161925
#	181362
#	191282
#	203104
#	229941
#	249703
#	268517
#	287919
#	307001
#
# Disc length: 4408 seconds
#
# Revision: 3
# Processed by: cddbd v1.5.1PL0 Copyright (c) Steve Scherf et al.
# Submitted via: AudioConverter v4.5 Copyright (c) AC Productions Ltd
#
DISCID=0f113612
DTITLE=Snoop Doggy Dogg - The last meal
DYEAR=2001
DGENRE=Rap
TTITLE0=Snoop
TTITLE1=Snoop
TTITLE2=Snoop
TTITLE3=Snoop
TTITLE4=Snoop
TTITLE5=Snoop
TTITLE6=Snoop
TTITLE7=Snoop
TTITLE8=Snoop
TTITLE9=Snoop
TTITLE10=Snoop
TTITLE11=Snoop
TTITLE12=Snoop
TTITLE13=Snoop
TTITLE14=Snoop
TTITLE15=Snoop
TTITLE16=Snoop
TTITLE17=Snoop
EXTD=The last Meal YEAR: 2001 ID3G: 15
EXTT0=
EXTT1=
EXTT2=
EXTT3=
EXTT4=
EXTT5=
EXTT6=
EXTT7=
EXTT8=
EXTT9=
EXTT10=
EXTT11=
EXTT12=
EXTT13=
EXTT14=
EXTT15=
EXTT16=
EXTT17=
PLAYORDER=
